<?xml version="1.0" encoding="UTF-8" standalone="no"?>
<!-- Created with Inkscape (http://www.inkscape.org/) -->

<svg
   version="1.1"
   id="svg1"
   width="2800"
   height="2800"
   viewBox="0 0 2800 2800"
   sodipodi:docname="vecteezy_hand-drawn-maple-leaf-outline-maple-leaf-in-red-line-art_28346426.eps"
   xmlns:inkscape="http://www.inkscape.org/namespaces/inkscape"
   xmlns:sodipodi="http://sodipodi.sourceforge.net/DTD/sodipodi-0.dtd"
   xmlns="http://www.w3.org/2000/svg"
   xmlns:svg="http://www.w3.org/2000/svg">
  <defs
     id="defs1">
    <clipPath
       clipPathUnits="userSpaceOnUse"
       id="clipPath4">
      <path
         d="m 8455.82,7876.68 c 0,0 -798.52,-247.74 -1205.11,-214.02 -346.72,28.74 -724.28,117.28 -983.56,349.26 -53.56,47.92 -94.21,193.93 -94.21,193.93 0,0 -658.73,212.48 -896.61,446.82 -201.48,198.47 -355.81,575.2 -389.79,753.6 -33.99,178.41 13.56,259.45 -22,300.12 -35.56,40.68 -196.67,36.16 -351.89,176.75 -155.21,140.56 -416.74,574.26 -517.3,907.66 -43.78,145.2 26.84,313.6 -30.83,453.9 -57.2,139 -171.92,254.8 -294.91,341.3 -158.12,111.3 -541.19,208.6 -541.19,208.6 0,0 996.24,-64 1487.04,-149.4 497.09,-86.6 993.68,-484 1468.67,-366.5 474.99,117.5 624.9,69.1 492.09,315.4 -132.81,246.3 -414.92,742.2 -559.15,1140.2 -44.59,123 -50.19,336.5 -93.12,381.5 -42.92,45 -479.88,380.5 -467.4,452.5 12.47,71.9 752.7,33.7 957.15,399.1 204.45,365.3 169.48,643.3 91.78,797.9 -77.7,154.5 -131.53,265.3 -131.53,265.3 0,0 731.39,115.6 862.16,524.2 130.77,408.6 223.42,819.7 182.07,1002.4 -41.36,182.7 -67.97,356.8 -67.97,356.8 0,0 262.66,-936.5 627.22,-1209.8 364.55,-273.3 643.75,-268.4 876.77,-514.4 157.53,-166.3 129.17,-477 315.13,-610.8 300.87,-216.4 742.6,-271.2 1098.97,-169.4 480.6,137.3 888.9,637.3 1137.6,976.7 248.6,339.4 382.6,567.8 460.7,819.1 78.1,251.3 -6.1,479 59.7,489.9 65.8,10.9 326.9,-320.5 699.4,-360.8 372.6,-40.3 605.1,1.5 706.3,140.2 101.2,138.7 48.1,318.4 145.2,281.3 97,-37.2 547.3,-232 788,-125.6 240.6,106.4 845.1,613.4 845.1,613.4 0,0 -312.1,-886.5 -306.9,-1265.9 5.2,-379.4 170.5,-768.8 476.6,-943.2 140.7,-80.2 484.6,32.6 484.6,32.6 -498.8,-557.9 -1235.8,-1094.9 -241.7,-1492.4 148.2,-17.6 347.9,-65.4 347.9,-65.4 0,0 -400.3,-70.5 -574.1,-168.3 -478.1,-268.9 -937.7,-737.3 -1215.4,-1109.3 -277.6,-371.9 -675.6,-1168.4 -290.4,-1305.2 385.2,-136.9 268,-104.3 408.6,-130.8 297.8,-56.1 515.3,91.7 907.4,-57 493.4,-187.2 709.6,-979.63 967.5,-1102.49 126.5,-54.43 588.8,-127.53 927.7,-326.38 338.9,-198.85 456.5,-386.68 590.4,-445.43 133.9,-58.75 309.2,-13.08 274.7,-72.02 -465.9,-77.74 -1254.3,112.59 -1441.3,-481.53 -50.9,-188.02 -14.4,-328.31 -52,-375.56 -37.6,-47.26 -749.4,73.21 -926.6,-228.87 -177.2,-302.08 -218.3,-743.47 -183,-902.82 35.2,-159.34 130.5,-165.73 13.1,-146.37 -117.4,19.36 -1194.2,462.94 -1553.7,525.33 -359.6,62.39 -796.6,110.84 -827.2,-59.41 -30.6,-170.25 102.5,-478.41 190.1,-705.76 140.8,-365.59 468.1,-670.79 534.8,-1046.65 66.6,-375.87 159.8,-757.33 131.8,-889.46 -28,-132.14 -636.2,44.07 -940.3,-32.69 -201.4,-50.84 -481.3,-83.66 -558.4,-276.53 -54.8,-137.1 152.1,-416.05 152.1,-416.05 -778.6,194.47 -1692.9,1888.54 -2240,1482.6 -244.06,-213.37 -366.67,-557.4 -138.6,-810.08 131.5,-145.57 211.3,-188.05 258.6,-369.58 0,0 -704.05,613.94 -959.19,998.53 -265.73,400.54 -426.44,865.87 -569.75,1324.68 -151.51,485.05 -301.84,1494.32 -301.84,1494.32 z"
         id="path4" />
    </clipPath>
    <clipPath
       clipPathUnits="userSpaceOnUse"
       id="clipPath7">
      <path
         d="m 8455.82,7876.68 c 0,0 -798.52,-247.74 -1205.11,-214.02 -346.72,28.74 -724.28,117.28 -983.56,349.26 -53.56,47.92 -94.21,193.93 -94.21,193.93 0,0 -658.73,212.48 -896.61,446.82 -201.48,198.47 -355.81,575.2 -389.79,753.6 -33.99,178.41 13.56,259.45 -22,300.12 -35.56,40.68 -196.67,36.16 -351.89,176.75 -155.21,140.56 -416.74,574.26 -517.3,907.66 -43.78,145.2 26.84,313.6 -30.83,453.9 -57.2,139 -171.92,254.8 -294.91,341.3 -158.12,111.3 -541.19,208.6 -541.19,208.6 0,0 996.24,-64 1487.04,-149.4 497.09,-86.6 993.68,-484 1468.67,-366.5 474.99,117.5 624.9,69.1 492.09,315.4 -132.81,246.3 -414.92,742.2 -559.15,1140.2 -44.59,123 -50.19,336.5 -93.12,381.5 -42.92,45 -479.88,380.5 -467.4,452.5 12.47,71.9 752.7,33.7 957.15,399.1 204.45,365.3 169.48,643.3 91.78,797.9 -77.7,154.5 -131.53,265.3 -131.53,265.3 0,0 731.39,115.6 862.16,524.2 130.77,408.6 223.42,819.7 182.07,1002.4 -41.36,182.7 -67.97,356.8 -67.97,356.8 0,0 262.66,-936.5 627.22,-1209.8 364.55,-273.3 643.75,-268.4 876.77,-514.4 157.53,-166.3 129.17,-477 315.13,-610.8 300.87,-216.4 742.6,-271.2 1098.97,-169.4 480.6,137.3 888.9,637.3 1137.6,976.7 248.6,339.4 382.6,567.8 460.7,819.1 78.1,251.3 -6.1,479 59.7,489.9 65.8,10.9 326.9,-320.5 699.4,-360.8 372.6,-40.3 605.1,1.5 706.3,140.2 101.2,138.7 48.1,318.4 145.2,281.3 97,-37.2 547.3,-232 788,-125.6 240.6,106.4 845.1,613.4 845.1,613.4 0,0 -312.1,-886.5 -306.9,-1265.9 5.2,-379.4 170.5,-768.8 476.6,-943.2 140.7,-80.2 484.6,32.6 484.6,32.6 -498.8,-557.9 -1235.8,-1094.9 -241.7,-1492.4 148.2,-17.6 347.9,-65.4 347.9,-65.4 0,0 -400.3,-70.5 -574.1,-168.3 -478.1,-268.9 -937.7,-737.3 -1215.4,-1109.3 -277.6,-371.9 -675.6,-1168.4 -290.4,-1305.2 385.2,-136.9 268,-104.3 408.6,-130.8 297.8,-56.1 515.3,91.7 907.4,-57 493.4,-187.2 709.6,-979.63 967.5,-1102.49 126.5,-54.43 588.8,-127.53 927.7,-326.38 338.9,-198.85 456.5,-386.68 590.4,-445.43 133.9,-58.75 309.2,-13.08 274.7,-72.02 -465.9,-77.74 -1254.3,112.59 -1441.3,-481.53 -50.9,-188.02 -14.4,-328.31 -52,-375.56 -37.6,-47.26 -749.4,73.21 -926.6,-228.87 -177.2,-302.08 -218.3,-743.47 -183,-902.82 35.2,-159.34 130.5,-165.73 13.1,-146.37 -117.4,19.36 -1194.2,462.94 -1553.7,525.33 -359.6,62.39 -796.6,110.84 -827.2,-59.41 -30.6,-170.25 102.5,-478.41 190.1,-705.76 140.8,-365.59 468.1,-670.79 534.8,-1046.65 66.6,-375.87 159.8,-757.33 131.8,-889.46 -28,-132.14 -636.2,44.07 -940.3,-32.69 -201.4,-50.84 -481.3,-83.66 -558.4,-276.53 -54.8,-137.1 152.1,-416.05 152.1,-416.05 -778.6,194.47 -1692.9,1888.54 -2240,1482.6 -244.06,-213.37 -366.67,-557.4 -138.6,-810.08 131.5,-145.57 211.3,-188.05 258.6,-369.58 0,0 -704.05,613.94 -959.19,998.53 -265.73,400.54 -426.44,865.87 -569.75,1324.68 -151.51,485.05 -301.84,1494.32 -301.84,1494.32 z"
         id="path7" />
    </clipPath>
    <clipPath
       clipPathUnits="userSpaceOnUse"
       id="clipPath9">
      <path
         d="m 8455.82,7876.68 c 0,0 -798.52,-247.74 -1205.11,-214.02 -346.72,28.74 -724.28,117.28 -983.56,349.26 -53.56,47.92 -94.21,193.93 -94.21,193.93 0,0 -658.73,212.48 -896.61,446.82 -201.48,198.47 -355.81,575.2 -389.79,753.6 -33.99,178.41 13.56,259.45 -22,300.12 -35.56,40.68 -196.67,36.16 -351.89,176.75 -155.21,140.56 -416.74,574.26 -517.3,907.66 -43.78,145.2 26.84,313.6 -30.83,453.9 -57.2,139 -171.92,254.8 -294.91,341.3 -158.12,111.3 -541.19,208.6 -541.19,208.6 0,0 996.24,-64 1487.04,-149.4 497.09,-86.6 993.68,-484 1468.67,-366.5 474.99,117.5 624.9,69.1 492.09,315.4 -132.81,246.3 -414.92,742.2 -559.15,1140.2 -44.59,123 -50.19,336.5 -93.12,381.5 -42.92,45 -479.88,380.5 -467.4,452.5 12.47,71.9 752.7,33.7 957.15,399.1 204.45,365.3 169.48,643.3 91.78,797.9 -77.7,154.5 -131.53,265.3 -131.53,265.3 0,0 731.39,115.6 862.16,524.2 130.77,408.6 223.42,819.7 182.07,1002.4 -41.36,182.7 -67.97,356.8 -67.97,356.8 0,0 262.66,-936.5 627.22,-1209.8 364.55,-273.3 643.75,-268.4 876.77,-514.4 157.53,-166.3 129.17,-477 315.13,-610.8 300.87,-216.4 742.6,-271.2 1098.97,-169.4 480.6,137.3 888.9,637.3 1137.6,976.7 248.6,339.4 382.6,567.8 460.7,819.1 78.1,251.3 -6.1,479 59.7,489.9 65.8,10.9 326.9,-320.5 699.4,-360.8 372.6,-40.3 605.1,1.5 706.3,140.2 101.2,138.7 48.1,318.4 145.2,281.3 97,-37.2 547.3,-232 788,-125.6 240.6,106.4 845.1,613.4 845.1,613.4 0,0 -312.1,-886.5 -306.9,-1265.9 5.2,-379.4 170.5,-768.8 476.6,-943.2 140.7,-80.2 484.6,32.6 484.6,32.6 -498.8,-557.9 -1235.8,-1094.9 -241.7,-1492.4 148.2,-17.6 347.9,-65.4 347.9,-65.4 0,0 -400.3,-70.5 -574.1,-168.3 -478.1,-268.9 -937.7,-737.3 -1215.4,-1109.3 -277.6,-371.9 -675.6,-1168.4 -290.4,-1305.2 385.2,-136.9 268,-104.3 408.6,-130.8 297.8,-56.1 515.3,91.7 907.4,-57 493.4,-187.2 709.6,-979.63 967.5,-1102.49 126.5,-54.43 588.8,-127.53 927.7,-326.38 338.9,-198.85 456.5,-386.68 590.4,-445.43 133.9,-58.75 309.2,-13.08 274.7,-72.02 -465.9,-77.74 -1254.3,112.59 -1441.3,-481.53 -50.9,-188.02 -14.4,-328.31 -52,-375.56 -37.6,-47.26 -749.4,73.21 -926.6,-228.87 -177.2,-302.08 -218.3,-743.47 -183,-902.82 35.2,-159.34 130.5,-165.73 13.1,-146.37 -117.4,19.36 -1194.2,462.94 -1553.7,525.33 -359.6,62.39 -796.6,110.84 -827.2,-59.41 -30.6,-170.25 102.5,-478.41 190.1,-705.76 140.8,-365.59 468.1,-670.79 534.8,-1046.65 66.6,-375.87 159.8,-757.33 131.8,-889.46 -28,-132.14 -636.2,44.07 -940.3,-32.69 -201.4,-50.84 -481.3,-83.66 -558.4,-276.53 -54.8,-137.1 152.1,-416.05 152.1,-416.05 -778.6,194.47 -1692.9,1888.54 -2240,1482.6 -244.06,-213.37 -366.67,-557.4 -138.6,-810.08 131.5,-145.57 211.3,-188.05 258.6,-369.58 0,0 -704.05,613.94 -959.19,998.53 -265.73,400.54 -426.44,865.87 -569.75,1324.68 -151.51,485.05 -301.84,1494.32 -301.84,1494.32 z"
         id="path9" />
    </clipPath>
    <clipPath
       clipPathUnits="userSpaceOnUse"
       id="clipPath11">
      <path
         d="m 8455.82,7876.68 c 0,0 -798.52,-247.74 -1205.11,-214.02 -346.72,28.74 -724.28,117.28 -983.56,349.26 -53.56,47.92 -94.21,193.93 -94.21,193.93 0,0 -658.73,212.48 -896.61,446.82 -201.48,198.47 -355.81,575.2 -389.79,753.6 -33.99,178.41 13.56,259.45 -22,300.12 -35.56,40.68 -196.67,36.16 -351.89,176.75 -155.21,140.56 -416.74,574.26 -517.3,907.66 -43.78,145.2 26.84,313.6 -30.83,453.9 -57.2,139 -171.92,254.8 -294.91,341.3 -158.12,111.3 -541.19,208.6 -541.19,208.6 0,0 996.24,-64 1487.04,-149.4 497.09,-86.6 993.68,-484 1468.67,-366.5 474.99,117.5 624.9,69.1 492.09,315.4 -132.81,246.3 -414.92,742.2 -559.15,1140.2 -44.59,123 -50.19,336.5 -93.12,381.5 -42.92,45 -479.88,380.5 -467.4,452.5 12.47,71.9 752.7,33.7 957.15,399.1 204.45,365.3 169.48,643.3 91.78,797.9 -77.7,154.5 -131.53,265.3 -131.53,265.3 0,0 731.39,115.6 862.16,524.2 130.77,408.6 223.42,819.7 182.07,1002.4 -41.36,182.7 -67.97,356.8 -67.97,356.8 0,0 262.66,-936.5 627.22,-1209.8 364.55,-273.3 643.75,-268.4 876.77,-514.4 157.53,-166.3 129.17,-477 315.13,-610.8 300.87,-216.4 742.6,-271.2 1098.97,-169.4 480.6,137.3 888.9,637.3 1137.6,976.7 248.6,339.4 382.6,567.8 460.7,819.1 78.1,251.3 -6.1,479 59.7,489.9 65.8,10.9 326.9,-320.5 699.4,-360.8 372.6,-40.3 605.1,1.5 706.3,140.2 101.2,138.7 48.1,318.4 145.2,281.3 97,-37.2 547.3,-232 788,-125.6 240.6,106.4 845.1,613.4 845.1,613.4 0,0 -312.1,-886.5 -306.9,-1265.9 5.2,-379.4 170.5,-768.8 476.6,-943.2 140.7,-80.2 484.6,32.6 484.6,32.6 -498.8,-557.9 -1235.8,-1094.9 -241.7,-1492.4 148.2,-17.6 347.9,-65.4 347.9,-65.4 0,0 -400.3,-70.5 -574.1,-168.3 -478.1,-268.9 -937.7,-737.3 -1215.4,-1109.3 -277.6,-371.9 -675.6,-1168.4 -290.4,-1305.2 385.2,-136.9 268,-104.3 408.6,-130.8 297.8,-56.1 515.3,91.7 907.4,-57 493.4,-187.2 709.6,-979.63 967.5,-1102.49 126.5,-54.43 588.8,-127.53 927.7,-326.38 338.9,-198.85 456.5,-386.68 590.4,-445.43 133.9,-58.75 309.2,-13.08 274.7,-72.02 -465.9,-77.74 -1254.3,112.59 -1441.3,-481.53 -50.9,-188.02 -14.4,-328.31 -52,-375.56 -37.6,-47.26 -749.4,73.21 -926.6,-228.87 -177.2,-302.08 -218.3,-743.47 -183,-902.82 35.2,-159.34 130.5,-165.73 13.1,-146.37 -117.4,19.36 -1194.2,462.94 -1553.7,525.33 -359.6,62.39 -796.6,110.84 -827.2,-59.41 -30.6,-170.25 102.5,-478.41 190.1,-705.76 140.8,-365.59 468.1,-670.79 534.8,-1046.65 66.6,-375.87 159.8,-757.33 131.8,-889.46 -28,-132.14 -636.2,44.07 -940.3,-32.69 -201.4,-50.84 -481.3,-83.66 -558.4,-276.53 -54.8,-137.1 152.1,-416.05 152.1,-416.05 -778.6,194.47 -1692.9,1888.54 -2240,1482.6 -244.06,-213.37 -366.67,-557.4 -138.6,-810.08 131.5,-145.57 211.3,-188.05 258.6,-369.58 0,0 -704.05,613.94 -959.19,998.53 -265.73,400.54 -426.44,865.87 -569.75,1324.68 -151.51,485.05 -301.84,1494.32 -301.84,1494.32 z"
         id="path11" />
    </clipPath>
    <clipPath
       clipPathUnits="userSpaceOnUse"
       id="clipPath13">
      <path
         d="m 8455.82,7876.68 c 0,0 -798.52,-247.74 -1205.11,-214.02 -346.72,28.74 -724.28,117.28 -983.56,349.26 -53.56,47.92 -94.21,193.93 -94.21,193.93 0,0 -658.73,212.48 -896.61,446.82 -201.48,198.47 -355.81,575.2 -389.79,753.6 -33.99,178.41 13.56,259.45 -22,300.12 -35.56,40.68 -196.67,36.16 -351.89,176.75 -155.21,140.56 -416.74,574.26 -517.3,907.66 -43.78,145.2 26.84,313.6 -30.83,453.9 -57.2,139 -171.92,254.8 -294.91,341.3 -158.12,111.3 -541.19,208.6 -541.19,208.6 0,0 996.24,-64 1487.04,-149.4 497.09,-86.6 993.68,-484 1468.67,-366.5 474.99,117.5 624.9,69.1 492.09,315.4 -132.81,246.3 -414.92,742.2 -559.15,1140.2 -44.59,123 -50.19,336.5 -93.12,381.5 -42.92,45 -479.88,380.5 -467.4,452.5 12.47,71.9 752.7,33.7 957.15,399.1 204.45,365.3 169.48,643.3 91.78,797.9 -77.7,154.5 -131.53,265.3 -131.53,265.3 0,0 731.39,115.6 862.16,524.2 130.77,408.6 223.42,819.7 182.07,1002.4 -41.36,182.7 -67.97,356.8 -67.97,356.8 0,0 262.66,-936.5 627.22,-1209.8 364.55,-273.3 643.75,-268.4 876.77,-514.4 157.53,-166.3 129.17,-477 315.13,-610.8 300.87,-216.4 742.6,-271.2 1098.97,-169.4 480.6,137.3 888.9,637.3 1137.6,976.7 248.6,339.4 382.6,567.8 460.7,819.1 78.1,251.3 -6.1,479 59.7,489.9 65.8,10.9 326.9,-320.5 699.4,-360.8 372.6,-40.3 605.1,1.5 706.3,140.2 101.2,138.7 48.1,318.4 145.2,281.3 97,-37.2 547.3,-232 788,-125.6 240.6,106.4 845.1,613.4 845.1,613.4 0,0 -312.1,-886.5 -306.9,-1265.9 5.2,-379.4 170.5,-768.8 476.6,-943.2 140.7,-80.2 484.6,32.6 484.6,32.6 -498.8,-557.9 -1235.8,-1094.9 -241.7,-1492.4 148.2,-17.6 347.9,-65.4 347.9,-65.4 0,0 -400.3,-70.5 -574.1,-168.3 -478.1,-268.9 -937.7,-737.3 -1215.4,-1109.3 -277.6,-371.9 -675.6,-1168.4 -290.4,-1305.2 385.2,-136.9 268,-104.3 408.6,-130.8 297.8,-56.1 515.3,91.7 907.4,-57 493.4,-187.2 709.6,-979.63 967.5,-1102.49 126.5,-54.43 588.8,-127.53 927.7,-326.38 338.9,-198.85 456.5,-386.68 590.4,-445.43 133.9,-58.75 309.2,-13.08 274.7,-72.02 -465.9,-77.74 -1254.3,112.59 -1441.3,-481.53 -50.9,-188.02 -14.4,-328.31 -52,-375.56 -37.6,-47.26 -749.4,73.21 -926.6,-228.87 -177.2,-302.08 -218.3,-743.47 -183,-902.82 35.2,-159.34 130.5,-165.73 13.1,-146.37 -117.4,19.36 -1194.2,462.94 -1553.7,525.33 -359.6,62.39 -796.6,110.84 -827.2,-59.41 -30.6,-170.25 102.5,-478.41 190.1,-705.76 140.8,-365.59 468.1,-670.79 534.8,-1046.65 66.6,-375.87 159.8,-757.33 131.8,-889.46 -28,-132.14 -636.2,44.07 -940.3,-32.69 -201.4,-50.84 -481.3,-83.66 -558.4,-276.53 -54.8,-137.1 152.1,-416.05 152.1,-416.05 -778.6,194.47 -1692.9,1888.54 -2240,1482.6 -244.06,-213.37 -366.67,-557.4 -138.6,-810.08 131.5,-145.57 211.3,-188.05 258.6,-369.58 0,0 -704.05,613.94 -959.19,998.53 -265.73,400.54 -426.44,865.87 -569.75,1324.68 -151.51,485.05 -301.84,1494.32 -301.84,1494.32 z"
         id="path13" />
    </clipPath>
  </defs>
  <sodipodi:namedview
     id="namedview1"
     pagecolor="#ffffff"
     bordercolor="#000000"
     borderopacity="0.25"
     inkscape:showpageshadow="2"
     inkscape:pageopacity="0.0"
     inkscape:pagecheckerboard="0"
     inkscape:deskcolor="#d1d1d1">
    <inkscape:page
       x="0"
       y="0"
       inkscape:label="1"
       id="page1"
       width="2800"
       height="2800"
       margin="0"
       bleed="0" />
  </sodipodi:namedview>
  <g
     id="g1"
     inkscape:groupmode="layer"
     inkscape:label="1">

    <path
       id="path2"
       d="M 8330.28,7911.77 C 7787.9,6940.5 7708.6,6722.78 7184.38,6226.8 6593,5667.28 5553.41,4989.18 4992.1,4830.39 4430.79,4671.6 3759.02,4661.47 3840.57,4508.59 c 81.56,-152.88 276.68,-355.1 460.11,-317.36 183.43,37.75 620.16,200.34 1469.88,686.82 849.73,486.49 1211.78,715.08 1588.98,1121.64 377.2,406.57 558.92,696.73 845.62,1276.83 286.7,580.11 397.36,816.64 397.36,816.64 0,0 -225.83,-98.28 -272.24,-181.39"
       style="fill:#cc0b11;fill-opacity:1;fill-rule:nonzero;stroke:none"
       transform="matrix(0.13333333,0,0,-0.13333333,0,2800)" />
    <path
       id="path3"
       d="m 8455.82,7876.68 c 0,0 -798.52,-247.74 -1205.11,-214.02 -346.72,28.74 -724.28,117.28 -983.56,349.26 -53.56,47.92 -94.21,193.93 -94.21,193.93 0,0 -658.73,212.48 -896.61,446.82 -201.48,198.47 -355.81,575.2 -389.79,753.6 -33.99,178.41 13.56,259.45 -22,300.12 -35.56,40.68 -196.67,36.16 -351.89,176.75 -155.21,140.56 -416.74,574.26 -517.3,907.66 -43.78,145.2 26.84,313.6 -30.83,453.9 -57.2,139 -171.92,254.8 -294.91,341.3 -158.12,111.3 -541.19,208.6 -541.19,208.6 0,0 996.25,-64 1487.04,-149.4 497.09,-86.6 993.68,-484 1468.67,-366.5 474.99,117.5 624.9,69.1 492.09,315.4 -132.81,246.3 -414.92,742.2 -559.15,1140.2 -44.59,123 -50.19,336.5 -93.12,381.5 -42.92,45 -479.88,380.5 -467.4,452.5 12.47,71.9 752.7,33.7 957.15,399.1 204.45,365.3 169.48,643.3 91.78,797.9 -77.7,154.5 -131.53,265.3 -131.53,265.3 0,0 731.39,115.6 862.16,524.2 130.77,408.6 223.42,819.7 182.07,1002.4 -41.36,182.7 -67.97,356.8 -67.97,356.8 0,0 262.66,-936.5 627.22,-1209.8 364.55,-273.3 643.75,-268.4 876.77,-514.4 157.53,-166.3 129.17,-477 315.13,-610.8 300.87,-216.4 742.6,-271.2 1098.97,-169.4 480.6,137.3 888.9,637.3 1137.6,976.7 248.6,339.4 382.6,567.8 460.7,819.1 78.1,251.3 -6.1,479 59.7,489.9 65.8,10.9 326.9,-320.5 699.4,-360.8 372.6,-40.3 605.1,1.5 706.3,140.2 101.2,138.7 48.1,318.4 145.2,281.3 97,-37.2 547.3,-232 788,-125.6 240.6,106.4 845.1,613.4 845.1,613.4 0,0 -312.1,-886.5 -306.9,-1265.9 5.2,-379.4 170.5,-768.8 476.6,-943.2 140.7,-80.2 484.6,32.6 484.6,32.6 -498.8,-557.9 -1235.8,-1094.9 -241.7,-1492.4 148.2,-17.6 347.9,-65.4 347.9,-65.4 0,0 -400.3,-70.5 -574.1,-168.3 -478.1,-268.9 -937.7,-737.3 -1215.4,-1109.3 -277.6,-371.9 -675.6,-1168.4 -290.4,-1305.2 385.2,-136.9 268,-104.3 408.6,-130.8 297.8,-56.1 515.3,91.7 907.4,-57 493.4,-187.2 709.6,-979.63 967.5,-1102.49 126.5,-54.43 588.8,-127.53 927.7,-326.38 338.9,-198.85 456.5,-386.68 590.4,-445.43 133.9,-58.75 309.2,-13.08 274.7,-72.02 -465.9,-77.74 -1254.3,112.59 -1441.3,-481.53 -50.9,-188.02 -14.4,-328.31 -52,-375.56 -37.6,-47.26 -749.4,73.21 -926.6,-228.87 -177.2,-302.08 -218.3,-743.47 -183,-902.82 35.2,-159.34 130.5,-165.73 13.1,-146.37 -117.4,19.36 -1194.2,462.94 -1553.7,525.33 -359.6,62.39 -796.6,110.84 -827.2,-59.41 -30.6,-170.25 102.5,-478.41 190.1,-705.76 140.8,-365.59 468.1,-670.79 534.8,-1046.65 66.6,-375.87 159.8,-757.33 131.8,-889.46 -28,-132.14 -636.2,44.07 -940.3,-32.69 -201.4,-50.84 -481.3,-83.66 -558.4,-276.53 -54.8,-137.1 152.1,-416.05 152.1,-416.05 -778.6,194.47 -1692.9,1888.54 -2240,1482.6 -244.06,-213.37 -366.67,-557.4 -138.6,-810.08 131.5,-145.57 211.3,-188.05 258.6,-369.58 0,0 -704.05,613.94 -959.19,998.53 -265.73,400.54 -426.44,865.87 -569.75,1324.68 -151.51,485.05 -301.84,1494.32 -301.84,1494.32 z"
       style="fill:none;stroke:#cc0b11;stroke-width:170.079;stroke-linecap:butt;stroke-linejoin:miter;stroke-miterlimit:4;stroke-dasharray:none;stroke-opacity:1"
       transform="matrix(0.13333333,0,0,-0.13333333,0,2800)"
       clip-path="url(#clipPath4)" />
    <path
       id="path5"
       d="m 15095.9,17227.5 c 0,0 -159.3,-216.8 -293.4,-445.5 -135.2,-230.4 -655.5,-1212.7 -1042.7,-1824.9 -386.8,-611.7 -1711.6,-2440 -3027.3,-3823.7 C 9414.22,9747.09 8279.71,7820.7 8279.71,7820.7 l 158.2,-67.14 c 0,0 525.68,1277.95 2380.09,3360.04 1271.5,1427.6 2500.8,3074.9 2889.3,3689.2 388.1,613.7 981.7,1739.4 1115.5,1967.4 134.8,229.8 283.4,463.7 283.4,463.7 l 3.5,9.1 -13.8,-15.5"
       style="fill:#cc0b11;fill-opacity:1;fill-rule:nonzero;stroke:none"
       transform="matrix(0.13333333,0,0,-0.13333333,0,2800)" />
    <path
       id="path6"
       d="m 8668.91,8256.76 c 0,0 507.7,-79.98 1013.43,39.27 505.76,119.25 894.56,208.04 1659.46,195.05 764.9,-12.99 1406.2,-270.4 2260.1,-97.91 853.9,172.48 1796.8,530.44 2100.8,609.61 303.9,79.17 1115.6,78.36 1368.6,-30.5 253.1,-108.85 577.8,-205.24 730.9,-183.02 153.1,22.22 180.1,20.42 180.1,20.42"
       style="fill:none;stroke:#cc0b11;stroke-width:42.5512;stroke-linecap:butt;stroke-linejoin:miter;stroke-miterlimit:4;stroke-dasharray:none;stroke-opacity:1"
       transform="matrix(0.13333333,0,0,-0.13333333,0,2800)"
       clip-path="url(#clipPath7)" />
    <path
       id="path8"
       d="m 8617.03,8197.55 c 0,0 862.75,-296.09 1234.94,-640.51 372.23,-344.42 666.33,-965.18 1192.93,-1428.25 526.7,-463.07 988.8,-678.15 1621.2,-937.14 632.4,-258.99 833.6,-489.06 917.6,-608.4 84.1,-119.35 255.8,-304.13 255.8,-304.13"
       style="fill:none;stroke:#cc0b11;stroke-width:42.5512;stroke-linecap:butt;stroke-linejoin:miter;stroke-miterlimit:4;stroke-dasharray:none;stroke-opacity:1"
       transform="matrix(0.13333333,0,0,-0.13333333,0,2800)"
       clip-path="url(#clipPath9)" />
    <path
       id="path10"
       d="m 8633.56,8201.86 c 0,0 -82.78,622.83 -613.49,864.17 -530.71,241.33 -1592.55,556.18 -1894.73,733.47 -302.16,177.29 -968.33,498.1 -1314.53,1149.4 -346.2,651.3 -1638.81,835.5 -1638.81,835.5 l -430.12,126.3"
       style="fill:none;stroke:#cc0b11;stroke-width:42.5512;stroke-linecap:butt;stroke-linejoin:miter;stroke-miterlimit:4;stroke-dasharray:none;stroke-opacity:1"
       transform="matrix(0.13333333,0,0,-0.13333333,0,2800)"
       clip-path="url(#clipPath11)" />
    <path
       id="path12"
       d="m 8681.75,8270.76 c 0,0 -240.86,772.47 -247.09,1406.41 -6.24,633.93 84.92,1266.73 23.67,1806.93 -61.26,540.2 -397.72,1255.8 -512.19,1729.2 -114.46,473.3 -111.24,1409.8 -213.48,1904 -102.24,494.2 -175.03,943.1 -237.82,1218 -62.79,275 -165.71,839.6 -165.71,839.6"
       style="fill:none;stroke:#cc0b11;stroke-width:42.5512;stroke-linecap:butt;stroke-linejoin:miter;stroke-miterlimit:4;stroke-dasharray:none;stroke-opacity:1"
       transform="matrix(0.13333333,0,0,-0.13333333,0,2800)"
       clip-path="url(#clipPath13)" />
    <path
       id="path14"
       d="m 10213.1,8413.3 c 0.6,-0.19 -4.7,-21.9 -4.1,-22.08 274.7,-89.85 612.1,-235.08 1013.3,-536.1 359.5,-269.77 707.4,-623.55 876.5,-798.59 -167.4,173.29 -510.4,538.06 -862.9,816.26 -393.9,310.76 -736.2,470.21 -1013,560.76 -0.6,0.18 -9.2,-20.43 -9.8,-20.25"
       style="fill:#cc0b11;fill-opacity:1;fill-rule:nonzero;stroke:none"
       transform="matrix(0.13333333,0,0,-0.13333333,0,2800)" />
    <path
       id="path15"
       d="m 10778.4,8478.3 c 0,0 22.5,-13.71 25.5,-10.75 21,20.41 111.1,108.6 266.7,276.53 69.2,74.69 149.4,163.9 222,251.65 34.6,41.82 67.6,83.53 97,123.36 28.9,39.21 54.3,76.61 74.2,110.57 81.1,138.29 147.1,288.32 189.8,394.54 60.1,149.38 70.9,194.19 70.9,194.19 0,0 -14.7,-43.6 -80.6,-190.04 -46.9,-104.04 -118,-251.24 -202.8,-384.81 -20.5,-32.2 -46.4,-67.98 -76,-105.86 -30.1,-38.43 -63.8,-78.82 -99.1,-119.44 -74.1,-85.39 -155.6,-172.04 -226.2,-244.98 -158.5,-163.63 -250.6,-249.02 -271.4,-269.21 -3,-2.93 10,-25.75 10,-25.75"
       style="fill:#cc0b11;fill-opacity:1;fill-rule:nonzero;stroke:none"
       transform="matrix(0.13333333,0,0,-0.13333333,0,2800)" />
    <path
       id="path16"
       d="m 11706.8,8468.52 -8.1,-22.34 c 85.7,-31.1 222.9,-80.43 355.2,-140.1 103.6,-46.74 206.4,-100.44 308.3,-167.38 102.4,-67.26 196,-142.76 285.8,-228.71 118.3,-113.32 217,-233.03 285.1,-322.92 -68.3,90.17 -163.4,211.61 -278.5,329.58 -87.1,89.29 -178.3,169.24 -279,241.63 -100.2,72.1 -202,130.97 -305.4,182.26 -132.9,65.94 -268,118.63 -355.3,150.31 l -8.1,-22.33"
       style="fill:#cc0b11;fill-opacity:1;fill-rule:nonzero;stroke:none"
       transform="matrix(0.13333333,0,0,-0.13333333,0,2800)" />
    <path
       id="path17"
       d="m 12592.6,8353.64 c 1,0.64 16.5,-17.7 17.5,-17.05 97.2,58.75 220.5,149.29 351.2,289.9 99,106.44 189.2,227.1 276.3,363.8 198.4,311.15 361.4,659.39 454.1,826.65 -60.1,-108.44 -304.6,-566.02 -473.9,-813.55 -91,-133.05 -183.8,-248.95 -284,-350.53 -132.4,-134.27 -253.6,-218.61 -348.1,-275.76 -1.1,-0.64 7.9,-22.82 6.9,-23.46"
       style="fill:#cc0b11;fill-opacity:1;fill-rule:nonzero;stroke:none"
       transform="matrix(0.13333333,0,0,-0.13333333,0,2800)" />
    <path
       id="path18"
       d="m 13600.9,8394.98 -7.7,-18.4 c -0.2,0.09 87.6,-31.35 286.6,-131.08 76.5,-38.3 166.1,-85.95 254.2,-139.27 84.3,-51.05 167,-107.13 235.3,-164.99 68.3,-57.97 138.4,-129.1 204.3,-202.05 68.8,-76.12 132.9,-154.07 185.4,-220.46 146.6,-185.31 187.1,-249.5 187.1,-249.5 0,0 -38,65.73 -180.8,254.32 -51.2,67.62 -113.9,146.92 -181.4,224.76 -64.6,74.49 -133.7,147.69 -201.6,208 -68,60.44 -150.5,118.95 -234.6,172.15 -87.7,55.55 -177.2,105.42 -253.2,145.52 -198.3,104.58 -285.6,139.31 -285.9,139.4 l -7.7,-18.4"
       style="fill:#cc0b11;fill-opacity:1;fill-rule:nonzero;stroke:none"
       transform="matrix(0.13333333,0,0,-0.13333333,0,2800)" />
    <path
       id="path19"
       d="m 14442.2,8604.78 c 0,0 12.1,-19.24 12.8,-18.85 7.4,4.22 46.8,24.47 135.7,104.64 72.7,65.59 177.5,175.16 271.8,336 92,156.86 184.7,310.08 246.1,411.17 83,136.59 110.4,182.05 110.4,182.05 0,0 -26.2,-36.72 -118.2,-177.1 -66.4,-101.27 -160.5,-247.2 -258.3,-404.01 -97.1,-155.7 -203.3,-259.2 -276.3,-319.87 -89.3,-74.19 -127.7,-90.06 -133.6,-93.43 -0.6,-0.33 9.6,-20.6 9.6,-20.6"
       style="fill:#cc0b11;fill-opacity:1;fill-rule:nonzero;stroke:none"
       transform="matrix(0.13333333,0,0,-0.13333333,0,2800)" />
    <path
       id="path20"
       d="m 15158.6,8832.66 c 0,0 -2.8,-23.72 0.5,-24.93 17.6,-6.45 81.3,-26.85 203.6,-81.44 56.7,-25.31 125.2,-58.16 194.8,-97.22 65.6,-36.82 132.2,-79.19 190.8,-125.9 140.7,-112.26 252.1,-193.29 316.6,-238.49 66.5,-46.59 83,-55.68 83,-55.68 0,0 -16.2,12.73 -78.3,61.93 -62.1,49.2 -170.6,135.81 -305.6,251.23 -58.4,49.84 -125,95.19 -190.4,134.68 -69.3,41.86 -137.8,77.45 -194.4,104.93 -122.1,59.39 -185.9,82.95 -204.1,89.64 -3.4,1.25 -16.5,-18.75 -16.5,-18.75"
       style="fill:#cc0b11;fill-opacity:1;fill-rule:nonzero;stroke:none"
       transform="matrix(0.13333333,0,0,-0.13333333,0,2800)" />
    <path
       id="path21"
       d="m 9224.52,7946.38 -19.76,-11.26 c 40.25,-70.63 103.69,-180.64 151.54,-284.49 37.72,-81.85 67.63,-162.92 85.34,-247.6 17.79,-85.05 22.06,-167.94 15.2,-254.13 -8.98,-112.85 -36.84,-222.07 -60.95,-300.18 24.07,77.97 55.55,186.26 69.88,299.26 10.96,86.41 11.56,170.92 -1.75,259.07 -13.27,87.94 -39.38,172.69 -74.23,258.11 -44.56,109.21 -104.52,220.54 -145.51,292.48 l -19.76,-11.26"
       style="fill:#cc0b11;fill-opacity:1;fill-rule:nonzero;stroke:none"
       transform="matrix(0.13333333,0,0,-0.13333333,0,2800)" />
    <path
       id="path22"
       d="m 9846.59,7561.75 c 0,0 -5.68,-28.04 -5.57,-28.06 4.61,-0.96 95.11,-19.92 284.78,-42.98 74.6,-9.07 161.8,-17.68 245.2,-20.77 40,-1.49 79.4,-1.71 116.3,-0.08 36.4,1.61 70.4,5.04 100.2,10.86 139.7,27.39 250.6,57.87 313.6,76.88 65.6,19.8 81,26.92 81,26.92 0,0 -18.2,-4.18 -83.2,-18.18 -62.5,-13.43 -178.1,-37.36 -316.3,-57.19 -28.2,-4.03 -60.7,-5.87 -96.1,-5.97 -35.8,-0.1 -74.2,1.57 -113.5,4.46 -81.8,6.04 -167.2,17.35 -240.8,28.86 -186.74,29.19 -275.43,52.35 -279.52,53.2 -0.08,0.01 -6.09,-27.95 -6.09,-27.95"
       style="fill:#cc0b11;fill-opacity:1;fill-rule:nonzero;stroke:none"
       transform="matrix(0.13333333,0,0,-0.13333333,0,2800)" />
    <path
       id="path23"
       d="m 10277.7,7046.08 -26.1,-2.04 c 0,0.31 9.2,-59.34 11.1,-197.33 0.7,-53.02 -0.2,-115.31 -5.2,-177.05 -4.7,-59.14 -13.1,-117.28 -27.2,-166.02 -14,-48.76 -36.9,-97.75 -63,-143.52 -27.2,-47.71 -57.7,-91.52 -84.6,-127.22 -74.9,-99.39 -105.27,-125.89 -105.27,-125.89 0,0 32.87,23.49 113.37,119.46 28.9,34.47 61.8,77.17 91.9,124.32 28.8,45.07 55.1,94.51 72.6,144.92 17.4,50.42 28.8,110.29 36.3,170.45 7.9,62.84 11.5,126.41 13.1,180.2 4.2,140.3 -0.8,201.44 -0.9,201.77 l -26.1,-2.04"
       style="fill:#cc0b11;fill-opacity:1;fill-rule:nonzero;stroke:none"
       transform="matrix(0.13333333,0,0,-0.13333333,0,2800)" />
    <path
       id="path24"
       d="m 10650.4,6543.1 v 0 c 0,0 -2.1,-29.39 -0.4,-29.65 12.7,-2 71.6,-9.97 186.8,-19.9 50.4,-4.35 110.9,-8.68 170.7,-10.57 56.7,-1.79 113.5,-1.41 161.3,3.34 24.1,2.37 51,7.18 79.4,13.66 28.8,6.54 59.2,14.82 90.1,24.09 64.1,19.25 130.3,42.88 187.1,64.53 160.9,61.27 214.3,89.32 214.3,89.32 0,0 -55.3,-24.05 -218.3,-77.88 -57.6,-19 -124.5,-39.61 -188.7,-55.57 -30.9,-7.69 -61.2,-14.3 -89.5,-19.14 -28.1,-4.81 -53.9,-7.82 -76.4,-8.49 -46.2,-1.43 -101.3,1.29 -157,6.03 -58.8,5.01 -117.8,12.23 -167.6,19.12 -113.2,15.68 -170.8,27.5 -183.1,29.44 -1.6,0.25 -8.7,-28.33 -8.7,-28.33"
       style="fill:#cc0b11;fill-opacity:1;fill-rule:nonzero;stroke:none"
       transform="matrix(0.13333333,0,0,-0.13333333,0,2800)" />
    <path
       id="path25"
       d="m 11097.8,6081.88 -20.5,-4.84 c 22.2,-93.48 61.8,-247.41 71,-406.96 9.7,-168.04 -16.3,-306.88 -47.3,-408.01 31.5,102.62 66.8,235.48 68.3,408.52 1.4,162.15 -28.9,322.3 -51.1,416.13 l -20.4,-4.84"
       style="fill:#cc0b11;fill-opacity:1;fill-rule:nonzero;stroke:none"
       transform="matrix(0.13333333,0,0,-0.13333333,0,2800)" />
    <path
       id="path26"
       d="m 11679,5663.67 v -21.01 c 152.8,-0.47 337.6,27.48 570.1,121.92 176.4,71.62 449.4,219.02 528.2,258.03 -92.4,-45.72 -343.5,-170.53 -535.6,-238.4 -236.6,-83.57 -412.4,-100.01 -562.6,-99.54 l -0.1,-21"
       style="fill:#cc0b11;fill-opacity:1;fill-rule:nonzero;stroke:none"
       transform="matrix(0.13333333,0,0,-0.13333333,0,2800)" />
    <path
       id="path27"
       d="m 12065.9,5454.22 -21.5,-10.3 c -0.1,0.21 21.7,-37.58 65.6,-138.04 16.8,-38.62 36.1,-85.2 54.1,-134.36 17.3,-47.05 33.3,-96.19 45,-142.61 11.5,-45.91 16.7,-97.72 18.2,-149.13 1.5,-53.6 -1,-106.35 -4.5,-150.61 -9.8,-123.6 -19.8,-162.88 -19.8,-162.88 0,0 13.3,38.32 29.1,161.91 5.7,44.28 10.7,97.27 11.6,151.67 0.9,51.99 -1.9,105.61 -11.4,154.22 -9.5,48.11 -23.4,98.96 -38.7,147.47 -15.9,50.62 -33.2,98.9 -48.3,138.71 -39.3,103.87 -57.9,144.04 -58,144.25 l -21.4,-10.3"
       style="fill:#cc0b11;fill-opacity:1;fill-rule:nonzero;stroke:none"
       transform="matrix(0.13333333,0,0,-0.13333333,0,2800)" />
    <path
       id="path28"
       d="m 12609.4,5212.66 1.4,-22.98 c 80,4.74 200,21.31 331,56.54 133.2,35.83 236.4,78.74 309.9,107.05 -70.1,-27.03 -184.2,-61.72 -314.9,-84.57 -136.4,-23.84 -245.9,-28.14 -328.8,-33.06 l 1.4,-22.98"
       style="fill:#cc0b11;fill-opacity:1;fill-rule:nonzero;stroke:none"
       transform="matrix(0.13333333,0,0,-0.13333333,0,2800)" />
    <path
       id="path29"
       d="m 9192.13,9110.95 c 1.55,-0.06 4.9,-37.43 6.46,-37.48 158.5,-5.61 547.7,-14.95 864.71,10.25 380.2,30.22 635.7,101.49 845.5,175 -204.3,-71.58 -476.3,-128.55 -847.5,-137.63 -295.43,-7.22 -720.02,21.82 -860.08,26.78 -1.55,0.06 -7.54,-36.98 -9.09,-36.92"
       style="fill:#cc0b11;fill-opacity:1;fill-rule:nonzero;stroke:none"
       transform="matrix(0.13333333,0,0,-0.13333333,0,2800)" />
    <path
       id="path30"
       d="m 9569.23,9674.33 23.63,24.71 c -59.49,56.9 -136.51,137.03 -209.2,249.48 -54.53,84.38 -100.56,177.38 -138.9,282.68 -86.99,238.9 -122.15,521.5 -135.87,669.7 13.47,-145.4 31.79,-434.2 103.37,-680.3 31.92,-109.8 72.81,-209.1 124.42,-300.47 68.71,-121.59 146.57,-210.9 208.91,-270.51 l 23.64,24.71"
       style="fill:#cc0b11;fill-opacity:1;fill-rule:nonzero;stroke:none"
       transform="matrix(0.13333333,0,0,-0.13333333,0,2800)" />
    <path
       id="path31"
       d="m 9953.53,10208.4 c 3.44,-1 5.18,-35 8.67,-36 212.5,-58.5 548.3,-129 959,-140.6 314.4,-8.8 647.7,18 966.2,97.1 94.5,25.7 201.6,65.9 307.3,110.4 110.5,46.6 219.6,98.2 311.5,143.7 257.8,127.6 338.5,179.1 338.5,179.1 0,0 -83.1,-47.5 -344,-167.5 -92.9,-42.8 -203.3,-91.3 -314.4,-134.5 -106.6,-41.4 -213.5,-77.8 -306.6,-99.7 -316.5,-71.3 -646.3,-90.9 -956.6,-76.5 -405.5,18.9 -734.5,93.2 -943.74,150.8 -3.43,1 -22.39,-27.3 -25.83,-26.3"
       style="fill:#cc0b11;fill-opacity:1;fill-rule:nonzero;stroke:none"
       transform="matrix(0.13333333,0,0,-0.13333333,0,2800)" />
    <path
       id="path32"
       d="m 10367.9,10715.7 c -0.4,0.6 25.1,21.4 24.7,22 -115.7,161.2 -258.4,384.9 -380.1,680.6 -91.46,222.2 -160.03,457.7 -209.62,714.6 -57.02,295.4 -83.75,593 -98.94,867.4 -14.03,253.4 -19.76,530.1 -22.01,673.9 1.87,-119.1 4.24,-445.1 11.72,-674.3 8.96,-274.7 27.62,-574.1 76.8,-872.8 42.8,-259.9 105.48,-500.3 192.91,-728.3 116.24,-303.1 258.04,-535.5 375.84,-699.5 0.4,-0.5 28.3,17 28.7,16.4"
       style="fill:#cc0b11;fill-opacity:1;fill-rule:nonzero;stroke:none"
       transform="matrix(0.13333333,0,0,-0.13333333,0,2800)" />
    <path
       id="path33"
       d="m 10985.3,11393.5 c 3,-0.6 6.6,-30.1 9.5,-30.6 263.9,-49.4 642.8,-90.3 1069.8,-16.1 428.5,74.3 797.4,244.9 1048.3,368.3 -250.3,-123.1 -627,-281.3 -1052.7,-340.2 -425.8,-58.9 -793.4,-5.4 -1055,43.6 -2.9,0.5 -16.9,-25.6 -19.9,-25"
       style="fill:#cc0b11;fill-opacity:1;fill-rule:nonzero;stroke:none"
       transform="matrix(0.13333333,0,0,-0.13333333,0,2800)" />
    <path
       id="path34"
       d="m 11689.8,12201 14.1,17.7 c -72.4,57.6 -162.8,142.1 -253.1,274.8 -67.4,99.1 -125.5,211.3 -178.7,339.4 -97.5,235 -224,680.6 -254.3,780.7 48.5,-160.2 121.8,-490.7 233.3,-789 48.9,-130.8 103.7,-247.2 169.4,-351 87.9,-139.1 179.9,-230.3 255.3,-290.3 l 14,17.7"
       style="fill:#cc0b11;fill-opacity:1;fill-rule:nonzero;stroke:none"
       transform="matrix(0.13333333,0,0,-0.13333333,0,2800)" />
    <path
       id="path35"
       d="m 12253,12881.7 0.6,-22.6 c 198.1,5.3 474.1,29.9 800.4,108.3 316.9,76 606.5,184.5 792.5,253.2 -184.3,-68 -481.5,-167.2 -797.4,-231.2 -330.6,-66.9 -597,-79.8 -796.7,-85.1 l 0.6,-22.6"
       style="fill:#cc0b11;fill-opacity:1;fill-rule:nonzero;stroke:none"
       transform="matrix(0.13333333,0,0,-0.13333333,0,2800)" />
    <path
       id="path36"
       d="m 12779.4,13568.6 13.8,18.3 c -74.6,56.3 -166.3,135.4 -255.6,252.3 -66.8,87.5 -123.3,184 -175.2,293.9 -50.7,107.6 -93.9,221.5 -132.8,328.4 -51.5,141.6 -97.2,270 -128.4,352.6 39,-103.3 66.6,-191.4 119.9,-355.6 35,-108 73.8,-224.3 120.4,-334.7 47.7,-113 101.1,-214 166.4,-306.4 87.3,-123.5 180.6,-209 257.7,-267.1 l 13.8,18.3"
       style="fill:#cc0b11;fill-opacity:1;fill-rule:nonzero;stroke:none"
       transform="matrix(0.13333333,0,0,-0.13333333,0,2800)" />
    <path
       id="path37"
       d="m 13283.2,14235.3 c 0,0 0.2,-21.5 0.3,-21.5 154,0.9 344.2,26 582.6,106.3 188.8,63.6 456,184.4 543.8,220.7 -99.7,-41.2 -347.6,-142.3 -550.2,-200.1 -243,-69.3 -423.3,-82.9 -576.5,-83.8 0,0 0,-21.6 0,-21.6"
       style="fill:#cc0b11;fill-opacity:1;fill-rule:nonzero;stroke:none"
       transform="matrix(0.13333333,0,0,-0.13333333,0,2800)" />
    <path
       id="path38"
       d="m 13689.2,14832.7 c -0.3,0.4 13.6,13.4 13.3,13.8 -45.1,55.7 -102.7,131.4 -153,223.8 -38.1,70.2 -68.2,143 -91.5,223.2 -23,79.6 -37.4,160.3 -47.5,241.2 -12.5,101.6 -18.8,212.2 -21.5,276.8 2.5,-59.7 6.1,-180.2 14.1,-277.5 6.7,-81.5 17.2,-163.6 36.6,-245.3 19.5,-82.6 46.6,-158.6 82.8,-232.3 47.5,-96.9 104.7,-177.1 150.5,-233.8 0.3,-0.3 15.9,10.5 16.2,10.1"
       style="fill:#cc0b11;fill-opacity:1;fill-rule:nonzero;stroke:none"
       transform="matrix(0.13333333,0,0,-0.13333333,0,2800)" />
    <path
       id="path39"
       d="m 8426.81,9628.99 c -0.39,0.06 3.59,34.04 3.2,34.1 -93.81,14.38 -213.37,41.81 -345.37,109.77 -99.23,51.1 -192.24,118.11 -284.98,202.23 -91.07,82.61 -175.16,175.71 -251.69,264.81 -44.26,51.6 -244.38,291.7 -244.94,292.4 75.67,-90.5 121.2,-154.4 234.45,-300.9 71.75,-92.8 151.13,-191.8 238.42,-280.98 89.04,-90.99 181.03,-166.52 282.25,-225.71 134.88,-78.87 262.03,-113.97 361.49,-129.22 0.41,-0.06 6.77,33.56 7.17,33.5"
       style="fill:#cc0b11;fill-opacity:1;fill-rule:nonzero;stroke:none"
       transform="matrix(0.13333333,0,0,-0.13333333,0,2800)" />
    <path
       id="path40"
       d="m 8454.84,10426.1 20.28,-23.8 c 0.29,0.2 44.2,38 148.61,147.4 40.02,41.9 87.59,93.8 135.05,150.9 45.49,54.7 91.01,114.4 130.08,175.2 19.32,30 41.13,65.6 64.42,104.8 23.56,39.5 48.58,82.7 73.99,127.2 52.95,92.8 107.45,191.4 154.33,277.5 132.55,243.2 176.2,331.1 176.2,331.1 0,0 -47.59,-85.8 -186.95,-325.1 -49.1,-84.3 -106.67,-181.9 -162.14,-272.5 -26.71,-43.6 -53.04,-85.8 -77.85,-124.4 -24.56,-38.1 -47.54,-72.5 -67.9,-101.2 -40.85,-57.5 -87.99,-113.9 -135.08,-165.7 -49.2,-54.1 -98.13,-102.9 -139.59,-142.3 -107.89,-102.6 -154.03,-135.6 -153.74,-135.4 l 20.29,-23.7"
       style="fill:#cc0b11;fill-opacity:1;fill-rule:nonzero;stroke:none"
       transform="matrix(0.13333333,0,0,-0.13333333,0,2800)" />
    <path
       id="path41"
       d="m 8471.27,11180.1 3.99,28.5 c -142.86,19.9 -316.32,58.6 -504.18,150.1 -140.26,68.4 -266.93,155.2 -396.42,260.7 -121.95,99.3 -251.21,219.9 -362.21,318.8 -167.97,149.7 -281.28,238.5 -399.05,320.1 114.31,-79.2 231.76,-176.6 391.35,-328.5 106.38,-101.2 233.4,-228.7 351.32,-332.4 126.3,-111.1 252.21,-204.9 394.08,-279.9 190.15,-100.5 370.08,-145.4 517.14,-165.9 l 3.98,28.5"
       style="fill:#cc0b11;fill-opacity:1;fill-rule:nonzero;stroke:none"
       transform="matrix(0.13333333,0,0,-0.13333333,0,2800)" />
    <path
       id="path42"
       d="m 8302.64,12132.3 20.76,4.7 c -23.29,101.6 -42.46,234.6 -27.14,399.6 11.45,123.4 40.28,247.2 83.81,379.7 42.37,128.9 96.78,259.9 147.09,380 79.79,190.4 114.14,273.2 160.41,398.6 -41.75,-113.2 -88.37,-219.2 -168.12,-395.3 -53.57,-118.2 -112.6,-248.2 -159.5,-376.3 -48.27,-131.9 -82.09,-256.9 -97.68,-383 -20.87,-168.8 -4.46,-307.8 19.61,-412.8 l 20.76,4.8"
       style="fill:#cc0b11;fill-opacity:1;fill-rule:nonzero;stroke:none"
       transform="matrix(0.13333333,0,0,-0.13333333,0,2800)" />
    <path
       id="path43"
       d="m 7933.72,13247.8 c -0.34,0.1 2.51,27.4 2.18,27.5 -84.06,11.9 -198.03,30.7 -325.5,69.9 -96.35,29.7 -190.88,67.9 -286.78,117.7 -220.64,114.5 -422.44,280.9 -537.89,383.1 109.65,-97.1 308.67,-279.5 524.52,-407.2 94.41,-55.8 188.73,-100.3 286.13,-135.5 128.37,-46.3 246.09,-70.3 331.8,-82.5 0.35,0 5.2,27.1 5.54,27"
       style="fill:#cc0b11;fill-opacity:1;fill-rule:nonzero;stroke:none"
       transform="matrix(0.13333333,0,0,-0.13333333,0,2800)" />
    <path
       id="path44"
       d="m 7842.76,14020.2 16.3,-18.2 c 46.93,42.1 112.01,105.4 168.51,174.7 43.43,53.3 80.23,107.7 112.34,168.1 31.94,60.2 56.98,122.1 79.59,187.5 27.95,80.8 55.46,178.2 72.74,236 -18.15,-60.8 -47.75,-151.2 -81.74,-232.6 -26.61,-63.6 -55.93,-122.4 -91.7,-178.6 -35.78,-56.2 -75.56,-106 -120.8,-154.7 -59.02,-63.5 -125.31,-122.6 -171.55,-164.1 l 16.31,-18.1"
       style="fill:#cc0b11;fill-opacity:1;fill-rule:nonzero;stroke:none"
       transform="matrix(0.13333333,0,0,-0.13333333,0,2800)" />
    <path
       id="path45"
       d="m 7790.57,14657.7 c -0.86,0.4 7.44,23.2 6.56,23.6 -39.88,20.2 -85.96,38.1 -149.68,59.6 -44.94,15.1 -94.95,30.7 -139.07,48.6 -45.86,18.6 -86.14,39.8 -122.7,68.3 -48.87,38 -81.91,82.3 -103.49,120.8 21.64,-38.6 50.98,-84.6 97.25,-128.1 34.65,-32.6 73.44,-58.8 118.61,-83 43.43,-23.2 92.15,-44.1 135.41,-63 67.56,-29.5 97.66,-43.8 141.97,-66.2 0.84,-0.4 14.28,19.8 15.14,19.4"
       style="fill:#cc0b11;fill-opacity:1;fill-rule:nonzero;stroke:none"
       transform="matrix(0.13333333,0,0,-0.13333333,0,2800)" />
    <path
       id="path46"
       d="m 8188.13,8972.53 c -2.99,-0.82 -17.46,17.1 -20.42,16.29 -47.75,-13.03 -192,-52.4 -281.23,-79.82 -87.37,-26.85 -177.96,-58.14 -265.26,-99.41 -88.25,-41.72 -166.88,-90.63 -240.47,-151 -98.04,-80.43 -170.8,-168.17 -224.02,-238.81 53.07,70.45 129,156.49 229.27,232.15 75.33,56.86 155.3,101.3 243.91,138.07 87.66,36.38 178.4,62.96 265.98,86.01 110.49,29.08 214.18,53.32 282.94,72.08 2.97,0.82 6.31,23.62 9.3,24.44"
       style="fill:#cc0b11;fill-opacity:1;fill-rule:nonzero;stroke:none"
       transform="matrix(0.13333333,0,0,-0.13333333,0,2800)" />
    <path
       id="path47"
       d="m 7489.25,9276.92 19.64,9.04 c -81.64,177.4 -166.34,401.77 -232.44,740.54 -55.38,283.8 -91.45,636.1 -104.75,771.9 12.07,-123.2 39.79,-501.4 83.45,-775.7 53.86,-338.34 132.94,-577.7 214.45,-754.82 l 19.65,9.04"
       style="fill:#cc0b11;fill-opacity:1;fill-rule:nonzero;stroke:none"
       transform="matrix(0.13333333,0,0,-0.13333333,0,2800)" />
    <path
       id="path48"
       d="m 6936.64,9478.7 v 0 c 0,0 -15.35,15.79 -21.44,13.9 -15.46,-4.82 -50.88,-16.92 -118.81,-40.17 -63.5,-21.72 -171.47,-58.75 -278.03,-96.26 -113.64,-40 -224.41,-80.06 -318.43,-116.23 -52.52,-20.21 -95.21,-37.44 -129.7,-52.14 -20.09,-8.56 -36.6,-15.93 -50.3,-22.31 -17.01,-7.92 -29.08,-14.01 -37.97,-18.72 8.86,4.69 21.16,10.5 38.39,17.79 13.87,5.87 30.7,12.59 51.06,20.32 34.83,13.22 78.47,28.78 131.5,46.82 94.51,32.12 208.08,68.41 322.3,103.71 112.88,34.87 212.04,64.35 281.45,84.66 68.82,20.14 104.79,30.23 120.22,35.03 6.07,1.89 9.76,23.6 9.76,23.6"
       style="fill:#cc0b11;fill-opacity:1;fill-rule:nonzero;stroke:none"
       transform="matrix(0.13333333,0,0,-0.13333333,0,2800)" />
    <path
       id="path49"
       d="m 6281.18,9723.96 19.89,9.81 c 0.35,-0.7 -5.69,4.87 -29.57,66.35 -23.43,60.35 -65.85,182.91 -124.49,409.28 -50.1,193.4 -56.67,382.4 -53.51,511.6 4.45,181.6 18.23,231.6 18.23,231.6 0,0 -17.09,-49.2 -26.98,-231.2 -7.02,-129.4 -5.4,-320.1 40.73,-517.3 53.15,-227.33 90.3,-352.21 110.73,-416.43 20.43,-64.21 24.72,-72.8 25.07,-73.51 l 19.9,9.8"
       style="fill:#cc0b11;fill-opacity:1;fill-rule:nonzero;stroke:none"
       transform="matrix(0.13333333,0,0,-0.13333333,0,2800)" />
    <path
       id="path50"
       d="m 5826.25,9973.59 c -0.85,-0.3 -10.57,17.87 -11.4,17.57 -73.95,-27.68 -170.2,-55.31 -290.94,-60.28 -91.44,-3.77 -183.56,5.83 -282.88,25.75 -96.26,19.3 -195.03,47.57 -284.87,73.27 -140.12,40 -207.24,58.1 -298.17,78.5 82.78,-18.5 165.37,-43.5 295.8,-86.3 88.38,-28.94 186.75,-61.8 282.75,-85.52 99.32,-24.54 193.34,-38.8 288.07,-38.64 125.22,0.2 227.57,26.08 304.58,54.9 0.86,0.3 -3.79,20.43 -2.94,20.75"
       style="fill:#cc0b11;fill-opacity:1;fill-rule:nonzero;stroke:none"
       transform="matrix(0.13333333,0,0,-0.13333333,0,2800)" />
    <path
       id="path51"
       d="m 5333.2,10323.1 19.46,-3.7 c 9.98,52.9 17.46,125.5 10.41,210.4 -5.28,63.7 -18.03,127.1 -37.9,192.7 -42.1,138.9 -127.06,305.7 -160.44,378.3 35.19,-76.5 107.72,-240.1 141.32,-383.4 15.38,-65.6 23.68,-127.8 25.3,-189.4 2.17,-82.1 -7.99,-150.2 -17.6,-201.2 l 19.45,-3.7"
       style="fill:#cc0b11;fill-opacity:1;fill-rule:nonzero;stroke:none"
       transform="matrix(0.13333333,0,0,-0.13333333,0,2800)" />
    <path
       id="path52"
       d="m 4885.55,10810.9 c -1.59,-0.3 -9.44,14.5 -11.03,14.2 -40.47,-7.9 -107.57,-21.6 -171.43,-29.6 -52.55,-6.6 -105.7,-9.9 -159.36,-6.3 -53.79,3.5 -104.11,13.7 -153.37,30.7 -65.11,22.5 -120.32,54.3 -159.07,80.4 38.81,-26.2 92.35,-60.1 156.81,-86.4 48.72,-19.9 99.16,-33.7 154.02,-40.9 54.77,-7.3 109.42,-7.4 163.52,-3.5 66.68,4.8 133.27,15.9 175.03,24 1.59,0.4 3.29,17.1 4.88,17.4"
       style="fill:#cc0b11;fill-opacity:1;fill-rule:nonzero;stroke:none"
       transform="matrix(0.13333333,0,0,-0.13333333,0,2800)" />
    <path
       id="path53"
       d="m 13962.4,15263.1 2.2,-15.9 c 46.9,6.5 116.3,18.2 186.6,35.5 54.2,13.3 107.4,29.4 161,50.1 129.5,50 234.5,117.1 315.5,169.1 -80.2,-51.4 -191.4,-112.9 -320.8,-153.9 -54.1,-17.1 -107.3,-29.8 -161.2,-40.1 -69.6,-13.3 -139.4,-22.4 -185.5,-28.8 l 2.2,-16"
       style="fill:#cc0b11;fill-opacity:1;fill-rule:nonzero;stroke:none"
       transform="matrix(0.13333333,0,0,-0.13333333,0,2800)" />
  </g>
</svg>
